<?xml version="1.0" encoding="iso-8859-1"?>
<!-- Generator: Adobe Illustrator 19.0.0, SVG Export Plug-In . SVG Version: 6.00 Build 0)  -->
<svg version="1.1" id="Layer_1" xmlns="http://www.w3.org/2000/svg" xmlns:xlink="http://www.w3.org/1999/xlink" x="0px" y="0px"
	 viewBox="0 0 512 512" style="enable-background:new 0 0 512 512;" xml:space="preserve">
<rect x="127.733" y="8.017" style="fill:#EBC9A0;" width="256.534" height="495.967"/>
<g>
	<rect x="161.937" y="42.221" style="fill:#E4EAF8;" width="76.96" height="162.472"/>
	<rect x="273.102" y="42.221" style="fill:#E4EAF8;" width="76.96" height="162.472"/>
</g>
<g>
	<rect x="161.937" y="238.898" style="fill:#D7AF87;" width="76.96" height="94.063"/>
	<rect x="273.102" y="238.898" style="fill:#D7AF87;" width="76.96" height="94.063"/>
	<rect x="161.937" y="367.165" style="fill:#D7AF87;" width="76.96" height="102.614"/>
	<rect x="273.102" y="367.165" style="fill:#D7AF87;" width="76.96" height="102.614"/>
</g>
<g>
	<polygon style="fill:#FFFFFF;" points="161.937,88.518 238.898,165.479 238.898,141.295 161.937,64.335 	"/>
	<polygon style="fill:#FFFFFF;" points="273.102,88.518 350.063,165.479 350.063,141.295 273.102,64.335 	"/>
</g>
<path style="fill:#FF5050;" d="M324.409,307.307L324.409,307.307c-14.168,0-25.653-11.485-25.653-25.653v-17.102h51.307v17.102
	C350.063,295.822,338.577,307.307,324.409,307.307z"/>
<path d="M384.267,0H127.733c-4.427,0-8.017,3.589-8.017,8.017v495.967c0,4.427,3.589,8.017,8.017,8.017h256.534
	c4.427,0,8.017-3.589,8.017-8.017V8.017C392.284,3.589,388.695,0,384.267,0z M376.251,495.967H135.749V16.033h240.501V495.967z"/>
<path d="M350.063,256.534h-0.534v-9.086c0-13.851-11.268-25.119-25.119-25.119c-13.851,0-25.119,11.268-25.119,25.119v9.086h-0.534
	c-4.427,0-8.017,3.589-8.017,8.017v17.102c0,18.566,15.105,33.67,33.67,33.67c18.566,0,33.67-15.105,33.67-33.67v-17.102
	C358.079,260.124,354.49,256.534,350.063,256.534z M315.324,247.449c0-5.01,4.076-9.086,9.086-9.086s9.086,4.076,9.086,9.086v9.086
	h-18.171V247.449z M342.046,281.653c0,9.725-7.912,17.637-17.637,17.637c-9.725,0-17.637-7.912-17.637-17.637v-9.086h9.62v9.086
	c0,4.427,3.589,8.017,8.017,8.017c4.427,0,8.017-3.589,8.017-8.017v-9.086h9.62V281.653z"/>
<path d="M161.937,212.71h76.96c4.427,0,8.017-3.589,8.017-8.017V42.221c0-4.427-3.589-8.017-8.017-8.017h-76.96
	c-4.427,0-8.017,3.589-8.017,8.017v162.472C153.921,209.12,157.51,212.71,161.937,212.71z M169.954,50.238h60.927v146.438h-60.927
	V50.238z"/>
<path d="M273.102,212.71h76.96c4.427,0,8.017-3.589,8.017-8.017V42.221c0-4.427-3.589-8.017-8.017-8.017h-76.96
	c-4.427,0-8.017,3.589-8.017,8.017v162.472C265.086,209.12,268.675,212.71,273.102,212.71z M281.119,50.238h60.927v146.438h-60.927
	V50.238z"/>
<path d="M161.937,477.795h76.96c4.427,0,8.017-3.589,8.017-8.017V367.165c0-4.427-3.589-8.017-8.017-8.017h-76.96
	c-4.427,0-8.017,3.589-8.017,8.017v102.614C153.921,474.206,157.51,477.795,161.937,477.795z M169.954,375.182h60.927v86.58h-60.927
	V375.182z"/>
<path d="M273.102,477.795h76.96c4.427,0,8.017-3.589,8.017-8.017v-51.307c0-4.427-3.589-8.017-8.017-8.017
	c-4.427,0-8.017,3.589-8.017,8.017v43.29h-60.927v-86.58h60.927v9.086c0,4.427,3.589,8.017,8.017,8.017
	c4.427,0,8.017-3.589,8.017-8.017v-17.102c0-4.427-3.589-8.017-8.017-8.017h-76.96c-4.427,0-8.017,3.589-8.017,8.017v102.614
	C265.086,474.206,268.675,477.795,273.102,477.795z"/>
<path d="M161.937,340.977h76.96c4.427,0,8.017-3.589,8.017-8.017v-94.063c0-4.427-3.589-8.017-8.017-8.017h-76.96
	c-4.427,0-8.017,3.589-8.017,8.017v94.063C153.921,337.388,157.51,340.977,161.937,340.977z M169.954,246.914h60.927v78.029h-60.927
	V246.914z"/>
<path d="M273.102,340.977h76.96c4.427,0,8.017-3.589,8.017-8.017c0-4.427-3.589-8.017-8.017-8.017h-68.944v-86.046
	c0-4.427-3.589-8.017-8.017-8.017c-4.427,0-8.017,3.589-8.017,8.017v94.063C265.086,337.388,268.675,340.977,273.102,340.977z"/>
<g>
</g>
<g>
</g>
<g>
</g>
<g>
</g>
<g>
</g>
<g>
</g>
<g>
</g>
<g>
</g>
<g>
</g>
<g>
</g>
<g>
</g>
<g>
</g>
<g>
</g>
<g>
</g>
<g>
</g>
</svg>
